<?xml version="1.0" encoding="utf-8"?>
<!-- Generator: Adobe Illustrator 21.1.0, SVG Export Plug-In . SVG Version: 6.00 Build 0)  -->
<svg version="1.1" id="Layer_1" xmlns="http://www.w3.org/2000/svg" xmlns:xlink="http://www.w3.org/1999/xlink" x="0px" y="0px"
	 viewBox="0 0 190 237" style="enable-background:new 0 0 190 237;" xml:space="preserve">
<style type="text/css">
	.st0{fill:#D6D6D6;}
	.st1{fill:url(#SVGID_1_);}
	.st2{fill:url(#SVGID_2_);stroke:#D6D6D6;stroke-width:5;}
	.st3{enable-background:new    ;}
	.st4{fill:#333333;}
</style>
<g>
	<path class="st0" d="M144.2,0L190,44.8l0,6.2h-28.5c-7,0-10.3-0.6-13.7-2.5c-3.1-1.7-5.6-4.1-7.3-7.3c-1.8-3.5-2.5-6.8-2.5-13.7V0
		L144.2,0z"/>
	
		<linearGradient id="SVGID_1_" gradientUnits="userSpaceOnUse" x1="-270.967" y1="770.7588" x2="-271.5852" y2="770.1304" gradientTransform="matrix(37.6482 0 0 -36.8638 10368.8379 28435.1016)">
		<stop  offset="0" style="stop-color:#FAFAFA"/>
		<stop  offset="1" style="stop-color:#F0F0F0"/>
	</linearGradient>
	<path class="st1" d="M144,8.1v19.4c0,6,0.5,8.4,1.8,10.9c1.1,2.1,2.7,3.7,4.8,4.8c2.5,1.3,4.9,1.8,10.9,1.8h20.1L144,8.1z"/>
	
		<linearGradient id="SVGID_2_" gradientUnits="userSpaceOnUse" x1="-276.9919" y1="783.6306" x2="-276.9919" y2="782.6379" gradientTransform="matrix(185 0 0 -232 51338.5 181806.5)">
		<stop  offset="0" style="stop-color:#FAFAFA"/>
		<stop  offset="1" style="stop-color:#F0F0F0"/>
	</linearGradient>
	<path class="st2" d="M139.5,2.5H20C10.3,2.5,2.5,10.3,2.5,20v197c0,9.7,7.8,17.5,17.5,17.5h150c9.7,0,17.5-7.8,17.5-17.5V49.5h-25
		c-6.9,0-10.1-0.6-13.5-2.4c-3-1.6-5.4-4-7.1-7.1c-1.8-3.4-2.4-6.6-2.4-13.5V2.5z"/>
	<g transform="translate(22 100)">
		<g class="st3">
			<path class="st4" d="M15.2,21.7H7.7L5.9,27H2.7L9.8,7.3h3.3L20.3,27H17L15.2,21.7z M8.5,19.2h6l-2.9-8.7h-0.1L8.5,19.2z"/>
			<path class="st4" d="M35.1,19.8c0,4.5-2.4,7.3-6,7.3c-2.1,0-3.7-0.9-4.5-2.5h-0.1v7.1h-3V12.6h2.9V15h0.1
				c0.8-1.5,2.6-2.5,4.6-2.5C32.7,12.5,35.1,15.4,35.1,19.8z M32.1,19.8c0-2.9-1.5-4.8-3.8-4.8c-2.3,0-3.8,2-3.8,4.8
				c0,2.9,1.5,4.8,3.8,4.8C30.6,24.6,32.1,22.7,32.1,19.8z"/>
			<path class="st4" d="M50.5,19.8c0,4.5-2.4,7.3-6,7.3c-2.1,0-3.7-0.9-4.5-2.5h-0.1v7.1h-3V12.6h2.9V15h0.1
				c0.8-1.5,2.6-2.5,4.6-2.5C48.1,12.5,50.5,15.4,50.5,19.8z M47.5,19.8c0-2.9-1.5-4.8-3.8-4.8c-2.3,0-3.8,2-3.8,4.8
				c0,2.9,1.5,4.8,3.8,4.8C45.9,24.6,47.5,22.7,47.5,19.8z"/>
			<path class="st4" d="M60.9,27h-3.1V7.3h7.6c4.1,0,6.6,2.4,6.6,6c0,2.7-1.4,4.8-3.8,5.6l4.4,8.1h-3.5l-4-7.6h-4.2V27z M60.9,16.9
				h4.3c2.4,0,3.7-1.3,3.7-3.6c0-2.2-1.4-3.5-3.8-3.5h-4.2V16.9z"/>
			<path class="st4" d="M86.5,22.8c-0.4,2.6-2.9,4.4-6.2,4.4c-4.2,0-6.8-2.8-6.8-7.3c0-4.5,2.6-7.4,6.7-7.4c4,0,6.5,2.7,6.5,7.1v1
				H76.5v0.2c0,2.5,1.5,4.1,3.9,4.1c1.6,0,2.9-0.8,3.3-2H86.5z M76.5,18.5h7.2c-0.1-2.2-1.5-3.7-3.5-3.7
				C78.1,14.8,76.6,16.3,76.5,18.5z"/>
			<path class="st4" d="M95.5,27h-3.2l-5.2-14.4h3.1l3.6,11.5h0.1l3.6-11.5h3.1L95.5,27z"/>
			<path class="st4" d="M101.7,8.8c0-1,0.8-1.7,1.7-1.7c1,0,1.7,0.7,1.7,1.7c0,0.9-0.8,1.7-1.7,1.7C102.5,10.5,101.7,9.8,101.7,8.8z
				 M102,12.6h3V27h-3V12.6z"/>
			<path class="st4" d="M119.8,22.8c-0.4,2.6-2.9,4.4-6.2,4.4c-4.2,0-6.8-2.8-6.8-7.3c0-4.5,2.6-7.4,6.7-7.4c4,0,6.5,2.7,6.5,7.1v1
				h-10.2v0.2c0,2.5,1.5,4.1,3.9,4.1c1.6,0,2.9-0.8,3.3-2H119.8z M109.8,18.5h7.2c-0.1-2.2-1.5-3.7-3.5-3.7
				C111.4,14.8,110,16.3,109.8,18.5z"/>
			<path class="st4" d="M136.8,27h-3.1l-3-10.8h-0.1l-3,10.8h-3l-4-14.4h3l2.6,11.3h0.1l3-11.3h2.8l3,11.3h0.1l2.6-11.3h2.9
				L136.8,27z"/>
		</g>
		<g class="st3">
			<path class="st4" d="M7.6,53.3c-3.9,0-6.4-2.9-6.4-7.4c0-4.5,2.5-7.4,6.4-7.4c3.1,0,5.4,1.7,5.9,4.5h-1.8c-0.6-1.9-2-2.9-4.1-2.9
				c-2.8,0-4.6,2.2-4.6,5.8c0,3.6,1.8,5.8,4.6,5.8c2.5,0,4.2-1.6,4.2-4v-0.3h-4v-1.5h5.7v1.7C13.6,51,11.2,53.3,7.6,53.3z"/>
			<path class="st4" d="M24.7,53h-1.6v-1.7h-0.2c-0.5,1.2-1.7,1.8-3.3,1.8c-2.4,0-3.6-1.4-3.6-3.9v-6.8h1.7v6.4
				c0,1.9,0.7,2.8,2.4,2.8c1.9,0,2.9-1.1,2.9-2.9v-6.2h1.7V53z"/>
			<path class="st4" d="M27.2,39.2c0-0.6,0.5-1.2,1.2-1.2s1.2,0.5,1.2,1.2s-0.5,1.2-1.2,1.2S27.2,39.8,27.2,39.2z M27.6,42.5h1.7V53
				h-1.7V42.5z"/>
			<path class="st4" d="M31.6,47.7c0-3.3,1.7-5.4,4.4-5.4c1.5,0,2.7,0.7,3.3,1.8h0.1v-5.8h1.7V53h-1.6v-1.7h-0.2
				c-0.7,1.2-1.9,1.9-3.4,1.9C33.3,53.2,31.6,51,31.6,47.7z M33.3,47.7c0,2.5,1.2,3.9,3.1,3.9c1.9,0,3.1-1.5,3.1-3.9
				c0-2.4-1.2-3.9-3.1-3.9C34.5,43.8,33.3,45.3,33.3,47.7z"/>
			<path class="st4" d="M52.7,50.3c-0.5,1.8-2.1,2.9-4.4,2.9c-2.9,0-4.7-2.1-4.7-5.4c0-3.3,1.9-5.5,4.7-5.5c2.8,0,4.6,2,4.6,5.3v0.6
				h-7.6v0.1c0.1,2.1,1.2,3.4,3,3.4c1.4,0,2.3-0.5,2.7-1.4H52.7z M45.3,46.9h5.8c0-1.9-1.2-3.1-2.8-3.1C46.6,43.8,45.4,45,45.3,46.9
				z"/>
			<path class="st4" d="M55.2,38.3h1.7V53h-1.7V38.3z"/>
			<path class="st4" d="M59.5,39.2c0-0.6,0.5-1.2,1.2-1.2s1.2,0.5,1.2,1.2s-0.5,1.2-1.2,1.2S59.5,39.8,59.5,39.2z M59.9,42.5h1.7V53
				h-1.7V42.5z"/>
			<path class="st4" d="M64.4,42.5H66v1.7h0.2c0.5-1.2,1.6-1.8,3.2-1.8c2.4,0,3.7,1.4,3.7,3.9V53h-1.7v-6.4c0-1.9-0.8-2.8-2.5-2.8
				s-2.8,1.1-2.8,3V53h-1.7V42.5z"/>
			<path class="st4" d="M84.4,50.3c-0.5,1.8-2.1,2.9-4.4,2.9c-2.9,0-4.7-2.1-4.7-5.4c0-3.3,1.9-5.5,4.7-5.5c2.8,0,4.6,2,4.6,5.3v0.6
				H77v0.1c0.1,2.1,1.2,3.4,3,3.4c1.4,0,2.3-0.5,2.7-1.4H84.4z M77,46.9h5.8c0-1.9-1.2-3.1-2.8-3.1C78.3,43.8,77.1,45,77,46.9z"/>
			<path class="st4" d="M90.5,42.3c2.2,0,3.7,1.1,4,2.8h-1.7c-0.2-0.8-1-1.4-2.3-1.4c-1.2,0-2.2,0.6-2.2,1.6c0,0.7,0.6,1.2,1.8,1.5
				l1.6,0.4c2,0.5,2.9,1.3,2.9,2.9c0,1.9-1.8,3.2-4.2,3.2c-2.3,0-4-1.1-4.1-2.9H88c0.3,0.9,1.1,1.5,2.5,1.5c1.4,0,2.4-0.7,2.4-1.6
				c0-0.7-0.5-1.2-1.7-1.5l-1.8-0.4c-2-0.5-2.9-1.3-2.9-2.9C86.6,43.6,88.3,42.3,90.5,42.3z"/>
		</g>
	</g>
</g>
</svg>
