<svg xmlns="http://www.w3.org/2000/svg" width="120" height="90" viewBox="0 0 120 90">
  <defs>
    <linearGradient id="imessage-appstore-a" x1="50%" x2="50%" y1="0%" y2="100%">
      <stop offset="0%" stop-color="#21CCFA"/>
      <stop offset="100%" stop-color="#1F6DF1"/>
    </linearGradient>
  </defs>
  <g fill="none" fill-rule="evenodd">
    <rect width="120" height="90" fill="url(#imessage-appstore-a)" fill-rule="nonzero" rx="45"/>
    <path fill="#FFF" d="M90.2294755,53.7041748 C90.7291709,54.3903692 91,55.2306215 91,56.0930418 C91,56.9562336 90.7291709,57.7953415 90.2294755,58.4819217 C89.7265071,59.172308 89.0311637,59.6593369 88.2343671,59.8925286 C87.8562132,60.0033908 87.4758856,60.0527045 87.0860636,60.0764053 C86.6564523,60.1020182 86.2275655,60.0997242 85.7979542,60.0997242 L81.7106317,60.0997242 L84.825223,65.7505884 C85.0402098,66.1401318 85.2566582,66.5281464 85.4497453,66.9306872 C85.62568,67.2961466 85.7745929,67.6654289 85.8720484,68.0641469 C86.0775533,68.9032522 86.0227978,69.7779087 85.703422,70.5791675 C85.3855079,71.3754571 84.8263099,72.0410067 84.1131019,72.4722186 C83.3995067,72.9038128 82.5702166,73.0781325 81.7526071,72.9676536 C80.9302505,72.8571746 80.1801766,72.4695426 79.5888598,71.8636288 C79.3078117,71.5757719 79.0767593,71.2558029 78.8625095,70.9140455 C78.6263476,70.5371176 78.4139093,70.1468091 78.1989225,69.7572656 L64.6911958,45.2542559 C63.3870334,42.8883285 62.8690987,40.1229128 63.2928634,37.4274604 C63.58523,35.5684283 64.3477216,33.5220863 66.0519376,31.6947891 L77.2929898,52.0859827 L85.7979542,52.0859827 C86.2275655,52.0859827 86.6564523,52.0840796 87.0860636,52.1096938 C87.4758856,52.1330062 87.8562132,52.1827044 88.2343671,52.2935705 C89.0311637,52.5267596 89.7265071,53.0137757 90.2294755,53.7041748 Z M51.5597038,51.1357189 L62.7864932,51.1357189 C66.4210482,51.1357189 69.0607161,54.860378 67.9976268,58.5517358 C67.8926022,58.9177694 67.7853809,59.1621814 67.7416061,59.2555295 L34.1976412,59.2555295 C33.7683949,59.2555295 33.3395132,59.2578538 32.9106302,59.2319019 C32.5207713,59.2078874 32.1411227,59.1575328 31.7629333,59.0455915 C30.9671685,58.8093133 30.2720582,58.3158381 29.7698723,57.615923 C29.2706042,56.9206462 29,56.070432 29,55.1958151 C29,54.3219798 29.2706042,53.4706061 29.7698723,52.7753293 C30.2720582,52.0757921 30.9671685,51.5823299 31.7629333,51.3460543 C32.1411227,51.2337208 32.5207713,51.1833649 32.9106302,51.1597438 C33.3395132,51.1337907 33.7683949,51.1357189 34.1976412,51.1357189 L42.7315152,51.1357189 L55.1851468,28.2261227 L51.9885893,22.3455257 C51.7737846,21.9508211 51.5575194,21.5576799 51.3645958,21.1498033 C51.1888102,20.7795144 51.0400109,20.4053431 50.9426379,20.001349 C50.7373196,19.1511348 50.7923907,18.2648963 51.111496,17.4534294 C51.4287789,16.64621 51.9871289,15.9722351 52.7001073,15.5349266 C53.4127238,15.098009 54.2416736,14.921001 55.0589526,15.0325528 C55.8802509,15.1452641 56.630064,15.5376366 57.2205056,16.1515752 C57.5013282,16.4432358 57.7321725,16.7674421 57.9466152,17.1141099 C58.1822151,17.4952516 58.394823,17.8907249 58.6092658,18.2858204 L59.5990476,20.1063082 L60.588842,18.2858204 C60.8036467,17.8911158 61.0162671,17.4956424 61.2518545,17.1141099 C61.4659353,16.7674421 61.6971415,16.4432358 61.9772277,16.1515752 C62.5684057,15.5376366 63.3182189,15.1452641 64.1395171,15.0329306 C64.9560722,14.921001 65.7857459,15.098009 66.4983624,15.5349266 C67.2113408,15.9722351 67.7693289,16.64621 68.0866118,17.4534294 C68.4060915,18.2648963 68.4611626,19.1511348 68.2554698,20.001349 C68.1584588,20.4053431 68.0092975,20.7795144 67.8338864,21.1498033 C67.6405883,21.5576799 67.4243232,21.9508211 67.2098804,22.3455257 L51.5597038,51.1357189 Z M36.2685675,61.2566161 C41.2362734,59.8254991 43.4328123,63.2722682 43.6623064,63.6611634 L40.7201622,69.3391069 C40.5099332,69.7443051 40.3018432,70.1502992 40.0709112,70.5423749 C39.8613944,70.8978667 39.6354601,71.2306945 39.3609835,71.5301196 C38.7827613,72.1603837 38.0485623,72.5635936 37.2447626,72.6785125 C36.4452459,72.7934313 35.634665,72.612106 34.9365161,72.1631672 C34.2387227,71.7146259 33.6922676,71.0223295 33.3817409,70.194039 C33.0690739,69.3605795 33.0155338,68.4507728 33.2164846,67.5779459 C33.3117834,67.1632044 33.4574094,66.7790816 33.6290914,66.3989352 C33.8186201,65.9802173 34.0302784,65.5766093 34.2397941,65.1714111 L36.2685675,61.2566161 Z"/>
  </g>
</svg>
