<?xml version="1.0" encoding="UTF-8"?>
<svg width="269px" height="56px" viewBox="0 0 269 56" version="1.1" xmlns="http://www.w3.org/2000/svg" xmlns:xlink="http://www.w3.org/1999/xlink">
    <!-- Generator: Sketch 52.6 (67491) - http://www.bohemiancoding.com/sketch -->
    <title>apple-developer-brandmark</title>
    <desc>Created with Sketch.</desc>
    <g id="Page-1" stroke="none" stroke-width="1" fill="none" fill-rule="evenodd">
        <g id="apple-developer-brandmark" fill="#CCCCCC">
            <g id="Group" transform="translate(54.000000, 11.000000)">
                <path d="M13.0060501,0.4505014 C23.4796829,0.4505014 29.6808548,6.8958129 29.6808548,18.0042123 C29.6808548,29.1370248 23.504097,35.6804818 13.0060501,35.6804818 L0.5792885,35.6804818 L0.5792885,0.4505014 L13.0060501,0.4505014 Z M6.0480385,30.9436646 L12.4933548,30.9436646 C19.9640579,30.9436646 24.0900345,26.3782349 24.0900345,18.0530396 C24.0900345,9.7522584 19.9396439,5.1624146 12.4933548,5.1624146 L6.0480385,5.1624146 L6.0480385,30.9436646 Z" id="Shape" fill-rule="nonzero"></path>
                <path d="M55.6178665,28.1360474 C54.9098587,32.7991333 50.3688431,35.9978638 44.5582962,35.9978638 C37.0875931,35.9978638 32.4489212,30.9924927 32.4489212,22.9602661 C32.4489212,14.9036255 37.1120071,9.6790161 44.3385696,9.6790161 C51.4430618,9.6790161 55.9108352,14.5618286 55.9108352,22.3499145 L55.9108352,24.1565551 L37.7711868,24.1565551 L37.7711868,24.4739379 C37.7711868,28.8684691 40.5299759,31.7493285 44.6803665,31.7493285 C47.610054,31.7493285 49.9049759,30.3577269 50.6129837,28.1360473 L55.6178665,28.1360473 Z M37.7956009,20.4700317 L50.6373978,20.4700317 C50.5153275,16.5393676 48.000679,13.951477 44.3385697,13.951477 C40.7008743,13.9514771 38.0641556,16.5881958 37.7956009,20.4700317 Z" id="Shape" fill-rule="nonzero"></path>
                <polygon id="Path" points="72.0578079 35.680481 66.3937454 35.680481 57.1408157 9.996399 62.7560501 9.996399 69.2013626 30.5286256 69.2990188 30.5286256 75.7443237 9.996399 81.2619018 9.996399"></polygon>
                <path d="M105.160339,28.1360474 C104.452332,32.7991333 99.911316,35.9978638 94.1007691,35.9978638 C86.630066,35.9978638 81.9913941,30.9924927 81.9913941,22.9602661 C81.9913941,14.9036255 86.65448,9.6790161 93.8810425,9.6790161 C100.985535,9.6790161 105.453308,14.5618286 105.453308,22.3499145 L105.453308,24.1565551 L87.3136597,24.1565551 L87.3136597,24.4739379 C87.3136597,28.8684691 90.0724488,31.7493285 94.2228394,31.7493285 C97.1525269,31.7493285 99.4474488,30.3577269 100.155457,28.1360473 L105.160339,28.1360473 Z M87.3380737,20.4700317 L100.179871,20.4700317 C100.0578,16.5393676 97.5431518,13.951477 93.8810425,13.951477 C90.2433472,13.9514771 87.6066284,16.5881958 87.3380737,20.4700317 Z" id="Shape" fill-rule="nonzero"></path>
                <polygon id="Path" points="109.725769 0.4505014 114.999207 0.4505014 114.999207 35.680481 109.725769 35.680481"></polygon>
                <path d="M118.872253,22.8381958 C118.872253,14.7571411 123.632996,9.6790161 131.054871,9.6790161 C138.50116,9.6790161 143.237488,14.7571411 143.237488,22.8381958 C143.237488,30.9436646 138.525574,35.9978638 131.054871,35.9978638 C123.584168,35.9978638 118.872253,30.9436646 118.872253,22.8381958 Z M137.866394,22.8381958 C137.866394,17.2962036 135.327332,14.0247192 131.054871,14.0247192 C126.78241,14.0247192 124.243347,17.3206176 124.243347,22.8381958 C124.243347,28.404602 126.78241,31.6516724 131.054871,31.6516724 C135.327332,31.6516724 137.866394,28.4046021 137.866394,22.8381958 Z" id="Shape" fill-rule="nonzero"></path>
                <path d="M171.008972,22.8381958 C171.008972,30.8215942 166.736511,35.9490356 160.291199,35.9490356 C156.629089,35.9490356 153.723816,34.3132934 152.210144,31.4563598 L152.088074,31.4563598 L152.088074,44.1765746 L146.814636,44.1765746 L146.814636,9.9963989 L151.917175,9.9963989 L151.917175,14.2688598 L152.014832,14.2688598 C153.479675,11.5100707 156.604675,9.7278442 160.193542,9.7278442 C166.712097,9.7278442 171.008972,14.8792114 171.008972,22.8381958 Z M165.58905,22.8381958 C165.58905,17.6380005 162.903503,14.2200317 158.801941,14.2200317 C154.773621,14.2200317 152.06366,17.7112426 152.06366,22.8381958 C152.06366,28.013977 154.773621,31.4807739 158.801941,31.4807739 C162.903503,31.4807739 165.58905,28.0872192 165.58905,22.8381958 Z" id="Shape" fill-rule="nonzero"></path>
                <path d="M196.882996,28.1360474 C196.174988,32.7991333 191.633972,35.9978638 185.823425,35.9978638 C178.352722,35.9978638 173.71405,30.9924927 173.71405,22.9602661 C173.71405,14.9036255 178.377136,9.6790161 185.603699,9.6790161 C192.708191,9.6790161 197.175964,14.5618286 197.175964,22.3499145 L197.175964,24.1565551 L179.036316,24.1565551 L179.036316,24.4739379 C179.036316,28.8684691 181.795105,31.7493285 185.945496,31.7493285 C188.875183,31.7493285 191.170105,30.3577269 191.878113,28.1360473 L196.882996,28.1360473 Z M179.06073,20.4700317 L191.902527,20.4700317 C191.780457,16.5393676 189.265808,13.951477 185.603699,13.951477 C181.966003,13.9514771 179.329285,16.5881958 179.06073,20.4700317 Z" id="Shape" fill-rule="nonzero"></path>
                <path d="M201.003113,9.9963989 L206.03241,9.9963989 L206.03241,14.3665161 L206.15448,14.3665161 C206.960144,11.4612427 209.303894,9.7278442 212.331238,9.7278442 C213.088074,9.7278442 213.722839,9.8255004 214.137878,9.9231567 L214.137878,14.8547973 C213.722839,14.6838989 212.795105,14.5374145 211.769714,14.5374145 C208.37616,14.5374145 206.27655,16.8323364 206.27655,20.4456176 L206.27655,35.680481 L201.003113,35.680481 L201.003113,9.9963989 Z" id="Path"></path>
            </g>
            <g id="XMLID_5_">
                <path d="M26.460165,7.513381 C28.0771942,5.4908295 29.1745014,2.7751205 28.8850975,0 C26.5179882,0.1177039 23.6293869,1.5616617 21.9570236,3.5858014 C20.4554233,5.3191643 19.1263885,8.1485713 19.4728603,10.807359 C22.1300602,11.037858 24.7848053,9.4791927 26.460165,7.513381" id="XMLID_14_"></path>
                <path d="M28.8549023,11.326499 C24.9960041,11.0966358 21.7150021,13.5166044 19.8721752,13.5166044 C18.0283394,13.5166044 15.2063799,11.4423303 12.1541967,11.49823 C8.181591,11.5565777 4.4954686,13.8027277 2.4795408,17.3751431 C-1.6668844,24.5217381 1.3852976,35.1226502 5.4174754,40.9431611 C7.3755948,43.8227464 9.7354519,46.9933892 12.8449385,46.8795014 C15.7828734,46.7642098 16.9344199,44.9771386 20.5056135,44.9771386 C24.0741751,44.9771386 25.1114752,46.8795014 28.2214662,46.8218728 C31.4466039,46.7642098 33.4628908,43.9408456 35.4209711,41.0584527 C37.6673014,37.7758676 38.5868647,34.6062699 38.6447069,34.4322701 C38.5868646,34.3746415 32.4257356,32.0110779 32.3686106,24.923874 C32.3104441,18.9896565 37.2057802,16.1670133 37.4361803,15.9919702 C34.6717415,11.9033518 30.3523617,11.4423304 28.8549023,11.326499" id="XMLID_6_"></path>
            </g>
        </g>
    </g>
</svg>