<?xml version="1.0" encoding="UTF-8"?>
<svg width="126px" height="23px" viewBox="0 0 422 78" version="1.1" xmlns="http://www.w3.org/2000/svg" xmlns:xlink="http://www.w3.org/1999/xlink">
    <!-- Generator: Sketch 53.2 (72643) - https://sketchapp.com -->
    <title>Group 18</title>
    <desc>Created with Sketch.</desc>
    <defs>
        <polygon id="path-1" points="0.0006 0.105 62.9696 0.105 62.9696 77.6697 0.0006 77.6697"></polygon>
        <polygon id="path-3" points="0.1489 0.3725 51.4049 0.3725 51.4049 60 0.1489 60"></polygon>
        <polygon id="path-5" points="0.2917 0.3718 45.4537 0.3718 45.4537 60 0.2917 60"></polygon>
    </defs>
    <g id="Page-1" stroke="none" stroke-width="1" fill="none" fill-rule="evenodd">
        <g id="Group-18" transform="translate(0.000000, -1.000000)">
            <g id="Group-3" transform="translate(0.000000, 0.895000)">
                <mask id="mask-2" fill="white">
                    <use xlink:href="#path-1"></use>
                </mask>
                <g id="Clip-2"></g>
                <path d="M32.4126,17.9707 C32.0216,17.9707 31.6316,17.9217 31.3876,17.8727 C31.3386,17.6777 31.2406,17.0917 31.2406,16.5057 C31.2406,12.5037 33.2896,8.5497 35.4866,6.0117 C38.2696,2.6917 42.9556,0.2517 46.8106,0.1047 C46.9086,0.5447 46.9576,1.1297 46.9576,1.6667 C46.9576,5.6207 45.2976,9.6237 42.9066,12.5037 C40.3186,15.6277 35.9266,17.9707 32.4126,17.9707 M60.9676,26.5617 C60.5276,26.9037 52.6196,31.3457 52.6196,41.3037 C52.6196,52.8237 62.6766,56.8747 62.9696,56.9717 C62.9206,57.2647 61.3576,62.5367 57.6486,68.0047 C54.3776,72.7387 50.9126,77.5717 45.6396,77.5717 C40.3676,77.5717 39.0006,74.4477 32.9966,74.4477 C27.0416,74.4477 24.8946,77.6697 20.1116,77.6697 C15.3266,77.6697 11.9596,73.2267 8.1016,67.8087 C3.6606,61.4147 0.0006,51.5057 0.0006,42.0847 C0.0006,27.0497 9.8106,19.0447 19.4286,19.0447 C24.5046,19.0447 28.7996,22.4127 32.0216,22.4127 C35.0476,22.4127 39.7816,18.8487 45.6396,18.8487 C47.8366,18.8487 55.7936,19.0447 60.9676,26.5617" id="Fill-1" fill="white" mask="url(#mask-2)"></path>
            </g>
            <polygon id="Fill-4" fill="white" points="100.6704 77.4414 89.4674 77.4414 74.4514 20.7214 86.7954 20.7214 95.6394 60.6964 96.2684 60.6964 106.6064 20.7214 116.6274 20.7214 127.1624 60.6964 127.7914 60.6964 136.5574 20.7214 148.8204 20.7214 133.7664 77.4414 122.6434 77.4414 111.9104 39.9024 111.2814 39.9024"></polygon>
            <polygon id="Fill-6" fill="white" points="178.6958 77.4414 167.4948 77.4414 152.4788 20.7214 164.8208 20.7214 173.6648 60.6964 174.2938 60.6964 184.6318 20.7214 194.6548 20.7214 205.1878 60.6964 205.8168 60.6964 214.5828 20.7214 226.8458 20.7214 211.7918 77.4414 200.6688 77.4414 189.9378 39.9024 189.3088 39.9024"></polygon>
            <path d="M243.3813,67.2998 L251.9493,67.2998 C262.4453,67.2998 268.3403,60.8548 268.3403,48.8648 C268.3403,37.3868 262.2483,30.8628 251.9493,30.8628 L243.3813,30.8628 L243.3813,67.2998 Z M253.8363,20.7208 C270.6993,20.7208 280.4473,30.9018 280.4473,48.6688 C280.4473,67.1038 270.8173,77.4418 253.8363,77.4418 L231.5103,77.4418 L231.5103,20.7208 L253.8363,20.7208 Z" id="Fill-8" fill="white"></path>
            <g id="Group-12" transform="translate(285.000000, 18.895000)">
                <mask id="mask-4" fill="white">
                    <use xlink:href="#path-3"></use>
                </mask>
                <g id="Clip-11"></g>
                <path d="M0.1489,30.1665 C0.1489,11.7315 10.2899,0.3725 26.7579,0.3725 C40.2019,0.3725 50.5009,9.2945 51.3659,21.6365 L39.8089,21.6365 C38.6689,15.1125 33.5199,10.8275 26.7579,10.8275 C17.8359,10.8275 12.2939,18.2175 12.2939,30.1665 C12.2939,42.1155 17.8359,49.5455 26.7969,49.5455 C33.5979,49.5455 38.7079,45.5355 39.8479,39.2855 L51.4049,39.2855 C50.4219,51.5495 40.4379,60.0005 26.7579,60.0005 C10.3289,60.0005 0.1489,48.6415 0.1489,30.1665" id="Fill-10" fill="white" mask="url(#mask-4)"></path>
            </g>
            <polygon id="Fill-13" fill="white" points="357.0923 32.2778 356.3833 32.2778 342.4693 41.8688 342.4693 30.8228 357.1313 20.7208 368.9613 20.7208 368.9613 77.4418 357.0923 77.4418"></polygon>
            <g id="Group-17" transform="translate(376.000000, 18.895000)">
                <mask id="mask-6" fill="white">
                    <use xlink:href="#path-5"></use>
                </mask>
                <g id="Clip-16"></g>
                <path d="M32.3657,20.3398 C32.3657,14.5618 28.0417,10.0808 22.1057,10.0808 C16.1707,10.0808 11.8067,14.4838 11.8067,20.1438 C11.8067,26.0398 16.0137,30.1668 22.0667,30.1668 C28.1197,30.1668 32.3657,26.0008 32.3657,20.3398 M1.0377,44.1208 L12.7897,44.1208 C13.8127,47.8548 17.4677,50.2528 21.9497,50.2528 C29.6527,50.2528 34.1727,42.9808 34.1337,30.9538 L33.4267,30.9538 C30.8327,36.2588 25.5647,39.2468 18.9617,39.2468 C8.1917,39.2468 0.2917,31.3458 0.2917,20.5358 C0.2917,8.7438 9.2917,0.3718 21.9887,0.3718 C36.3737,0.3718 45.4537,11.2988 45.4537,29.7348 C45.4537,48.6018 36.5707,60.0008 21.7917,60.0008 C11.0217,60.0008 2.6097,53.5938 1.0377,44.1208" id="Fill-15" fill="white" mask="url(#mask-6)"></path>
            </g>
        </g>
    </g>
</svg>