<svg xmlns="http://www.w3.org/2000/svg" width="50" height="50" viewBox="0 0 50 50">
  <g fill="none" fill-rule="evenodd">
    <path fill="#888" d="M47.4358938,32.1304087 C47.0676671,31.6341586 46.5586015,31.2840977 45.9752612,31.1164844 C45.6984122,31.0367952 45.4199717,31.0010729 45.1345803,30.9843161 C44.8200589,30.965905 44.506068,30.9672729 44.1915466,30.9672729 L37.9650038,30.9672729 L29.7353525,16.3103448 C28.4876843,17.6237826 27.9294589,19.094667 27.7154154,20.4309153 C27.4051743,22.368372 27.7843578,24.3561172 28.7391441,26.0567154 L38.6282434,43.6691642 C38.7856368,43.949163 38.9411643,44.2297117 39.11406,44.5006427 C39.2709137,44.7462935 39.4400688,44.9762831 39.6458261,45.183191 C40.0787331,45.6187141 40.6278674,45.8973389 41.2299203,45.9767498 C41.8284978,46.0561606 42.4356267,45.9308619 42.9580547,45.6206375 C43.4801991,45.3106879 43.8895919,44.8322994 44.122339,44.2599367 C44.3561561,43.6840021 44.396243,43.0553103 44.2457915,42.4521722 C44.1744436,42.1655788 44.0654235,41.9001435 43.9366205,41.6374559 C43.7952601,41.3481147 43.6367967,41.0692148 43.4794034,40.789216 L41.1991898,36.7274474 L44.1915466,36.7274474 C44.506068,36.7274474 44.8200589,36.7290963 45.1345803,36.7106861 C45.4199717,36.6936503 45.6984122,36.6582042 45.9752612,36.5785179 C46.5586015,36.4109027 47.0676671,36.0608325 47.4358938,35.5645917 C47.8017241,35.0710867 48,34.4679468 48,33.8474956 C48,33.2275989 47.8017241,32.6236364 47.4358938,32.1304087"/>
    <path fill="#888" d="M19.5161138 30.9738907L30.9737154 10.2798695C31.1307104 9.99616091 31.2890396 9.71357609 31.4305544 9.42039961 31.5589741 9.15424076 31.6681761 8.88529118 31.7391986 8.59490543 31.8897877 7.9837824 31.8494697 7.34676551 31.6155764 6.76349358 31.3832914 6.1832746 30.9747846 5.6988301 30.4528082 5.38449839 29.9310967 5.07044762 29.3236869 4.94321655 28.7258814 5.02367011 28.1246033 5.10441398 27.5756599 5.38644628 27.1428545 5.82773748 26.9378014 6.03737936 26.7685338 6.27041467 26.6118038 6.51959502 26.4393286 6.79383574 26.2836678 7.07809688 26.1264077 7.36180548L25.4017725 8.67034879 24.6771464 7.36180548C24.5201514 7.07781593 24.3644998 6.7935548 24.1920154 6.51959502 24.0350204 6.27041467 23.8660178 6.03737936 23.6604256 5.82773748 23.2281593 5.38644628 22.6792159 5.10441398 22.0779378 5.02339853 21.4796023 4.94321655 20.8727224 5.07044762 20.351011 5.38449839 19.8290346 5.6988301 19.4202628 6.1832746 19.1879778 6.76349358 18.9543586 7.34676551 18.9140407 7.9837824 19.0643556 8.59490543 19.1356431 8.88529118 19.24458 9.15424076 19.3732739 9.42039961 19.5145146 9.71357609 19.6728438 9.99616091 19.8301038 10.2798695L22.1703255 14.5067672 13.0529364 30.9738907 6.80522872 30.9738907C6.49097461 30.9738907 6.17698734 30.9725047 5.86299915 30.9911595 5.57758077 31.008138 5.29963747 31.0443332 5.02276242 31.1250771 4.44017753 31.2949089 3.93128251 31.6496032 3.56362881 32.1524216 3.19811117 32.6521776 3 33.2641341 3 33.8922357 3 34.5208991 3.19811117 35.1320221 3.56362881 35.6317782 3.93128251 36.1348681 4.44017753 36.4895718 5.02276242 36.6594055 5.29963747 36.7398675 5.57758077 36.7760618 5.86299915 36.7933231 6.17698734 36.811977 6.49097461 36.8103063 6.80522872 36.8103063L31.3629954 36.8103063C31.3950432 36.7432089 31.4735407 36.5675287 31.5504299 36.3044284 32.3287249 33.6511279 30.3962059 30.9738907 27.7353233 30.9738907L19.5161138 30.9738907zM8.8369931 37.765903L7.35171417 40.5798074C7.19832633 40.8710587 7.04336979 41.1611669 6.90461455 41.462136 6.778925 41.7353803 6.67231121 42.0114828 6.60254231 42.3095937 6.45542482 42.9369704 6.49462187 43.5909279 6.72352754 44.1900078 6.9508663 44.7853724 7.35092982 45.2829862 7.86178914 45.6053919 8.37290872 45.9280834 8.96634058 46.0584176 9.55167224 45.9758155 10.1401395 45.8932132 10.6776516 45.6033911 11.100972 45.1503654 11.3019183 44.9351425 11.4673263 44.6959101 11.620715 44.4403872 11.7897818 44.1585682 11.942126 43.8667449 12.0960361 43.5754936L14.25 39.4942607C14.0819858 39.2147279 12.4738847 36.7372345 8.8369931 37.765903"/>
  </g>
</svg>
