<svg xmlns="http://www.w3.org/2000/svg" width="50" height="50" viewBox="0 0 50 50">
  <g fill="none" fill-rule="evenodd">
    <rect width="43" height="43" x="3.5" y="3.5" stroke="#888" stroke-width="3" rx="1.5"/>
    <path fill="#888" d="M19,35 L32,35 L32,13 L19,13 L19,35 Z M24.5,38 C24.5,37.448 24.948,37 25.5,37 C26.051,37 26.5,37.448 26.5,38 C26.5,38.552 26.051,39 25.5,39 C24.948,39 24.5,38.552 24.5,38 Z M24,10 L27,10 L27.001,10.5 L24.001,10.5 L24,10 Z M20,8 C18.229,8 17,9.11351429 17,10.7672857 L17,38.2346 C17,39.8874286 18.232,41 20,41 L31.057,41 C32.787,41 34,39.8695143 34,38.2346 L34,10.7672857 C34,9.13802857 32.821,8 31.057,8 L20,8 Z"/>
  </g>
</svg>
