<svg xmlns="http://www.w3.org/2000/svg" width="46px" height="46px" viewBox="0 0 46 46">
  <title>System</title>
  <g id="System" fill="#888">
    <polygon id="Triangle" fill-rule="nonzero" points="14.3240139 35.8706273 16.0509861 36.8793727 24.1714447 22.9771474 15.593158 9.52483406 13.906842 10.6001659 21.8285553 23.0228526"/>
    <polygon id="Line" fill-rule="nonzero" points="22.5 24 39 24 39 22 22.5 22"/>
    <path id="Oval-3" fill-rule="nonzero" d="M23 39c-8.837 0-16-7.163-16-16S14.163 7 23 7s16 7.163 16 16-7.163 16-16 16zm0-2c7.732 0 14-6.268 14-14S30.732 9 23 9 9 15.268 9 23s6.268 14 14 14z"/>
    <path id="Oval-4" fill-rule="nonzero" d="M23 41c9.94 0 18-8.06 18-18S32.94 5 23 5 5 13.06 5 23s8.06 18 18 18zm0 2C11.954 43 3 34.046 3 23S11.954 3 23 3s20 8.954 20 20-8.954 20-20 20z"/>
    <path id="Rectangle-11" d="M22 0h2v3h-2V0zm5.987.525l1.932.518-.78 2.897-1.93-.517.775-2.898zm5.647 2.056l1.732 1-1.5 2.6-1.732-1 1.5-2.6zm4.922 3.45l1.415 1.416-2.12 2.12-1.413-1.413 2.12-2.12zm3.863 4.606l1 1.732-2.6 1.5-1-1.732 2.6-1.5zm2.535 5.447l.518 1.933-2.898.777-.517-1.932 2.896-.776zM46 22v2h-3v-2h3zm-.525 5.987l-.518 1.932-2.897-.78.517-1.93 2.898.775zm-2.056 5.647l-1 1.732-2.6-1.5 1-1.732 2.6 1.5zm-3.45 4.922l-1.416 1.415-2.12-2.12 1.413-1.413 2.12 2.12zm-4.606 3.863l-1.732 1-1.5-2.6 1.732-1 1.5 2.6zm-5.447 2.535l-1.933.518-.777-2.898 1.932-.517.776 2.896zM24 46h-2v-3h2v3zm-5.987-.525l-1.932-.518.78-2.897 1.93.517-.775 2.898zm-5.647-2.056l-1.732-1 1.5-2.6 1.732 1-1.5 2.6zm-4.922-3.45L6.03 38.555l2.12-2.12 1.415 1.413-2.12 2.12zM3.58 35.365l-1-1.732 2.6-1.5 1 1.732-2.6 1.5zM1.044 29.92l-.518-1.933 2.898-.777.517 1.932-2.895.777zM0 24v-2h3v2H0zm.525-5.987l.518-1.932 2.897.78-.517 1.93-2.898-.775zm2.056-5.647l1-1.732 2.6 1.5-1 1.732-2.6-1.5zm3.45-4.922L7.445 6.03l2.12 2.12L8.15 9.565l-2.12-2.12zm4.606-3.863l1.732-1 1.5 2.6-1.732 1-1.5-2.6zm5.447-2.535l1.933-.518.777 2.898-1.932.517-.776-2.896z"/>
  </g>
</svg>
