<svg xmlns="http://www.w3.org/2000/svg" width="46px" height="45px" viewBox="0 0 46 45">
  <title>Game</title>
  <g id="Game" fill="#888" fill-rule="nonzero">
    <path id="Oval" d="M40.6 34.9c-2.43 0-4.4-1.97-4.4-4.4 0-2.43 1.97-4.4 4.4-4.4 2.43 0 4.4 1.97 4.4 4.4 0 2.43-1.97 4.4-4.4 4.4zm0-2c1.325 0 2.4-1.075 2.4-2.4s-1.075-2.4-2.4-2.4-2.4 1.075-2.4 2.4 1.075 2.4 2.4 2.4zM8.5 13C4.91 13 2 10.09 2 6.5S4.91 0 8.5 0 15 2.91 15 6.5 12.09 13 8.5 13zm0-2c2.485 0 4.5-2.015 4.5-4.5S10.985 2 8.5 2 4 4.015 4 6.5 6.015 11 8.5 11zm25 15C26.596 26 21 20.404 21 13.5S26.596 1 33.5 1 46 6.596 46 13.5 40.404 26 33.5 26zm0-1.97c5.816 0 10.53-4.714 10.53-10.53 0-5.816-4.714-10.53-10.53-10.53-5.816 0-10.53 4.714-10.53 10.53 0 5.816 4.714 10.53 10.53 10.53z"/>
    <path id="Shape" d="M7.84 19.638l.516.624-.503.634c-1.365 1.722-2.213 3.435-2.495 5.192l-.152.946-.952-.112c-1.273-.15-2.387-.698-3.107-1.57-1.64-1.827-1.385-4.68.46-6.205 1.83-1.64 4.68-1.386 6.233.49zm-4.927 1.024c-1.01.837-1.15 2.383-.25 3.386.235.285.557.512.945.67.394-1.48 1.108-2.908 2.11-4.31-.857-.52-2.004-.463-2.805.254z"/>
    <path id="Shape" d="M22.19 14.453l.635.155.11.643c.793 4.66 4.717 8.29 9.52 8.857l.644.076.19.62c.834 2.724.934 5.58.286 8.368-2.047 8.356-10.38 13.42-18.735 11.378C6.48 42.5 1.41 34.178 3.456 25.83c2.047-8.354 10.38-13.42 18.735-11.377zM5.506 25.847C3.47 33.06 7.63 40.46 14.86 42.497c7.22 2.034 14.628-2.12 16.664-9.333.597-2.21.646-4.5.15-6.724-5.106-1.053-9.144-5.058-10.107-10.093-7.025-1.643-14.08 2.48-16.06 9.5z"/>
  </g>
</svg>
