<svg xmlns="http://www.w3.org/2000/svg" width="40px" height="41px" viewBox="0 0 40 41">
  <title>Services</title>
  <g id="Services" fill="#888" fill-rule="nonzero">
    <path id="Shape" d="M3.01 26.294c-.696-1.81-1.008-3.693-1.008-5.842C1.91 10.35 10.047 2.08 20.14 1.987c5.06-.09 9.88 1.9 13.427 5.51L35 6.11C31.07 2.113 25.72-.097 20.113.004 8.92.104-.102 9.274 0 20.46c0 2.37.353 4.49 1.14 6.54l1.87-.706zM37.008 14.71c.68 1.783 1.002 3.842 1.002 6.057 0 10.097-8.25 18.24-18.417 18.24-4.95 0-9.65-2.01-13.168-5.624L5 34.773C8.89 38.767 14.1 41 19.593 41 30.853 41 40 31.97 40 20.767c0-2.442-.36-4.738-1.133-6.767l-1.86.71z"/>
    <polygon id="Rectangle-9" points="28 6 28 8 35 8 35 1 33 1 33 6"/>
    <polygon id="Rectangle-9-Copy" points="12 34 12 32 5 32 5 39 7 39 7 34"/>
  </g>
</svg>
