<svg xmlns="http://www.w3.org/2000/svg" width="50px" height="38px" viewBox="0 0 50 38">
  <title>Chat Bubbles</title>
  <g id="Chat-Bubbles" fill="#888" fill-rule="nonzero">
    <path id="Path" d="M41.92 31.045l-.274-.74.632-.455c2.635-1.898 4.196-4.232 4.196-6.496 0-4.99-6.215-9.315-13.7-9.315-7.5 0-13.783 4.33-13.783 9.31 0 4.97 6.29 9.32 13.79 9.32.33 0 .73-.01 1.17-.04.36-.017.75-.04 1.15-.07.32-.02.63-.045.91-.07.17-.013.3-.024.36-.03l.45-.04.33.315c.575.556 1.17 1.034 1.794 1.44 2.17 1.42 4.445 1.887 6.57 1.74-2.032-1.777-2.94-3.153-3.58-4.887zm6.543 4.693L50 36.91l-1.822.614c-.192.064-.52.152-.963.238-2.947.567-6.242.186-9.36-1.85-.607-.397-1.193-.85-1.757-1.365-.275.023-.568.045-.87.067-.413.03-.813.053-1.192.07-.47.023-.895.036-1.26.036C24.306 34.72 17 29.665 17 23.354 17 17.044 24.3 12 32.775 12c8.458 0 15.69 5.034 15.69 11.354 0 2.82-1.66 5.508-4.392 7.674.677 1.463 1.765 2.705 4.39 4.71z"/>
    <path id="Path" d="M1.46 26.587L0 27.675l1.695.668c.403.16.917.316 1.556.443.96.19 1.98.263 3.05.18 2.77-.212 5.46-1.42 7.89-3.863 1.77.476 2.5.562 4.44.562v-2.03c-1.94 0-2.43-.075-4.48-.647l-.6-.168-.42.457c-2.18 2.364-4.55 3.48-6.98 3.667-.62.048-1.23.03-1.81-.038 2.36-1.984 3.25-3.458 4.1-5.767l.26-.69-.57-.46c-2.48-1.96-3.83-4.45-3.83-7.08 0-5.93 7-10.887 15.81-10.887 8.824 0 15.86 4.963 15.86 10.885l2.017.25c.01-.1.014-.17.014-.25C38 5.69 29.93 0 20.11 0 10.3 0 2.27 5.685 2.27 12.913c0 3.065 1.437 5.926 4.003 8.185-.83 2.024-1.82 3.257-4.813 5.49z"/>
  </g>
</svg>
