<svg xmlns="http://www.w3.org/2000/svg" xmlns:xlink="http://www.w3.org/1999/xlink" width="50" height="50" viewBox="0 0 50 50">
  <defs>
    <circle id="account-gradient-a" cx="25" cy="25" r="25"/>
    <linearGradient id="account-gradient-b" x1="50%" x2="50%" y1="-22.734%" y2="100%">
      <stop offset="0%" stop-color="#16B6FB"/>
      <stop offset="100%" stop-color="#1579F4"/>
    </linearGradient>
    <linearGradient id="account-gradient-d" x1="50%" x2="50%" y1="0%" y2="100%">
      <stop offset="0%" stop-color="#16B6FB"/>
      <stop offset="100%" stop-color="#1579F4"/>
    </linearGradient>
  </defs>
  <g fill="none" fill-rule="evenodd">
    <mask id="account-gradient-c" fill="#fff">
      <use xlink:href="#account-gradient-a"/>
    </mask>
    <path fill="url(#account-gradient-b)" d="M10.8232369,44.3539242 C11.368583,43.9860843 12.5933363,43.2913284 12.8371109,43.2065348 C14.1828363,42.7262199 15.6118239,42.3397351 17.1277668,42.0439832 C19.3435725,41.6142571 20.2630402,40.4976127 20.3950461,38.0888684 C20.3967901,38.0523547 20.4046917,37.985392 20.4521317,37.5910572 C20.4856495,37.3128519 20.4980803,37.2092825 20.5038674,37.1588475 C20.5277265,36.9509154 20.5472535,36.7654965 20.5634684,36.5920479 C20.6054085,36.1434183 20.6234072,35.7947913 20.6181052,35.5220614 C20.6144414,35.3336024 20.6000602,35.1882861 20.5732813,35.06573 C20.5104128,34.7780064 20.4175853,34.6411725 20.1966135,34.5335342 C19.37545,34.1206084 19.0146093,33.0259932 18.8034216,30.8287248 C18.748995,30.2554474 18.5878643,29.8231572 18.2241531,29.2511975 C18.2066151,29.2236179 18.1629194,29.156804 18.0425326,28.9730561 C17.9449095,28.8238895 17.888843,28.7375674 17.8590585,28.6899631 C17.8018393,28.5985101 17.751736,28.5141393 17.7065602,28.4330465 C17.270485,27.6587946 16.8098879,26.5077112 16.5425282,25.5367909 C16.4597529,25.244798 16.4257418,25.1228594 16.3878166,24.9812152 C16.3153038,24.7103922 16.2606122,24.4809079 16.2186726,24.2690349 C16.1298415,23.8202725 16.1003161,23.4543935 16.1452183,23.2097832 C16.1749527,23.0474646 16.2344566,22.8796315 16.3551523,22.6014172 C16.3890714,22.5236802 16.3890714,22.5236802 16.4053981,22.4864508 C16.6989693,21.8168587 16.7722397,21.549078 16.7722397,21.1353179 C16.7722397,20.7169708 16.7488687,20.3139824 16.696713,19.8134006 C16.6837616,19.6890957 16.6691051,19.5585868 16.6491678,19.3895844 C16.6317764,19.2432217 16.6317764,19.2432217 16.5981557,18.9621023 C16.5781428,18.7932873 16.5631648,18.6619908 16.5495285,18.5354446 C16.3938714,17.1176339 16.4404768,15.7639307 16.6931893,14.4936262 C16.8177446,13.8657942 17.1054151,13.1484048 17.4599665,12.5759946 C17.9008478,11.8633788 18.5617716,11.2224119 19.3730337,10.7105208 C21.1150278,9.62213424 23.3884922,8.96759588 25.3455033,9.00123714 C27.3477889,8.96768507 29.6216986,9.62014713 31.3723447,10.7139563 C32.1796152,11.2225209 32.8401653,11.8633292 33.2784442,12.5735795 C33.635041,13.1472903 33.9232023,13.8643692 34.047972,14.4932825 C34.3000922,15.7667329 34.3469201,17.1216257 34.1919615,18.5330528 C34.1785554,18.6557932 34.1640259,18.7820026 34.1448789,18.9423968 C34.1101754,19.230442 34.1101754,19.230442 34.0923174,19.3795949 C34.0717403,19.552733 34.0566706,19.6861029 34.0433782,19.8131919 C33.9911274,20.312759 33.967666,20.7164314 33.967666,21.1353179 C33.967666,21.5491649 34.0410791,21.8168924 34.3352854,22.486401 C34.3709988,22.5678083 34.3709988,22.5678083 34.3861287,22.6024754 C34.5066512,22.8796806 34.5662843,23.0475045 34.5959061,23.2092094 C34.6408861,23.4542441 34.6114495,23.8199711 34.5226787,24.2692054 C34.4810696,24.4797726 34.4269063,24.7077713 34.3549837,24.977543 C34.3175122,25.1180938 34.2832439,25.241567 34.2020761,25.5294326 C33.9314543,26.5071373 33.4710332,27.6585343 33.0386057,28.4283814 C32.9925947,28.5107098 32.9440419,28.5924682 32.8887622,28.6809362 C32.8583425,28.729619 32.8009654,28.8179729 32.7039821,28.9661247 C32.5796655,29.1558017 32.5350119,29.2240445 32.517758,29.2511742 C32.1544548,29.8224255 31.9930728,30.254946 31.9377699,30.8291261 C31.7260019,33.0324273 31.3643322,34.1215253 30.5271969,34.5414977 C30.3212095,34.6421731 30.229361,34.7790463 30.1669053,35.0662382 C30.1402789,35.1886756 30.1259924,35.3339002 30.1223847,35.5222106 C30.117159,35.7949809 30.1351943,36.1437993 30.1770994,36.5920484 C30.1934103,36.7665226 30.2130695,36.9530528 30.2370532,37.1617629 C30.2437314,37.2198781 30.2557045,37.3193657 30.2879328,37.585591 C30.34482,38.0555764 30.344232,38.0506587 30.3457791,38.081108 C30.478175,40.4973378 31.3974047,41.6142082 33.615047,42.0442913 C35.1258586,42.3387788 36.5531749,42.7248294 37.8922882,43.2028286 C38.083973,43.2699946 38.6455636,43.5320094 39.6035685,44.0062547 C40.2225031,44.3126485 40.0363869,44.8569928 39.5928268,45.2371261 C39.3601541,45.4365278 38.9880405,45.6679015 38.4883224,45.930735 C37.5307629,46.4343763 36.1304876,47.0377542 34.596956,47.6058672 C30.9540046,48.9554371 27.4810725,49.8029856 25.5272179,49.6700721 C22.7043739,49.4780443 17.8491426,48.0127127 10.921198,45.2734402 L10,44.9092034 L10.8232369,44.3539242 Z" mask="url(#account-gradient-c)"/>
    <circle cx="25" cy="25" r="23.5" stroke="url(#account-gradient-d)" stroke-width="3"/>
  </g>
</svg>
