<svg xmlns="http://www.w3.org/2000/svg" width="50" height="50" viewBox="0 0 50 50">
  <g fill="none" fill-rule="evenodd">
    <g fill="#888" transform="translate(4 1)">
      <path d="M14.3468738,14.2831715 L10.3468738,14.2831715 L10.3468738,6.78317148 C10.3468738,5.95474435 9.67530097,5.28317148 8.84687384,5.28317148 L2.14591195,5.39919688 L2.14591195,2.39919688 L8.84687384,2.28317148 C13.3468738,2.28317148 14.3468738,6.28317148 14.3468738,10.2831715 L14.3468738,14.2831715 Z" transform="rotate(-60 8.246 8.283)"/>
      <path d="M12,32 L8,32 L8,24.5 C8,23.6715729 7.32842712,23 6.5,23 L0,23 L0,20 L6.5,20 C11,20 12,24 12,28 L12,32 Z" transform="rotate(-90 6 26)"/>
      <path d="M15.6901406,44.9040064 L11.6901406,44.9040064 L11.6901406,37.4040064 C11.6901406,36.5755792 11.0185677,35.9040064 10.1901406,35.9040064 L4.36482304,36.1802858 L4.36482304,33.1802858 L10.1901406,32.9040064 C14.6901406,32.9040064 15.6901406,36.9040064 15.6901406,40.9040064 L15.6901406,44.9040064 Z" transform="rotate(-120 10.027 38.904)"/>
    </g>
    <g fill="#888" transform="matrix(-1 0 0 1 44.5 1)">
      <path d="M14.3540881,14.2831715 L10.3540881,14.2831715 L10.3540881,6.78317148 C10.3540881,5.95474435 9.68251518,5.28317148 8.85408805,5.28317148 L2.15312616,5.39919688 L2.15312616,2.39919688 L8.85408805,2.28317148 C13.3540881,2.28317148 14.3540881,6.28317148 14.3540881,10.2831715 L14.3540881,14.2831715 Z" transform="rotate(-60 8.254 8.283)"/>
      <path d="M12,32 L8,32 L8,24.5 C8,23.6715729 7.32842712,23 6.5,23 L0,23 L0,20 L6.5,20 C11,20 12,24 12,28 L12,32 Z" transform="rotate(-90 6 26)"/>
      <path d="M15.6901406,44.9040064 L11.6901406,44.9040064 L11.6901406,37.4040064 C11.6901406,36.5755792 11.0185677,35.9040064 10.1901406,35.9040064 L4.36482304,36.1802858 L4.36482304,33.1802858 L10.1901406,32.9040064 C14.6901406,32.9040064 15.6901406,36.9040064 15.6901406,40.9040064 L15.6901406,44.9040064 Z" transform="rotate(-120 10.027 38.904)"/>
    </g>
    <ellipse cx="24" cy="24" fill="#888" rx="13" ry="18"/>
  </g>
</svg>
