<svg xmlns="http://www.w3.org/2000/svg" width="50" height="50" viewBox="0 0 50 50">
  <g fill="none" fill-rule="evenodd">
    <rect width="45" height="35" x="2.5" y="7.5" stroke="#888" stroke-width="3" rx="1.5"/>
    <rect width="17" height="3" x="9" y="16" fill="#888" rx="1.5"/>
    <rect width="17" height="3" x="9" y="24" fill="#888" rx="1.5"/>
    <rect width="17" height="3" x="9" y="32" fill="#888" rx="1.5"/>
    <path fill="#888" d="M38.310805,27.4351374 L38.8100904,31.3470069 C38.9024387,32.0705499 38.3907543,32.7319604 37.6672114,32.8243087 C37.6117554,32.8313868 37.5559059,32.8349365 37.5,32.8349365 C36.6715729,32.8349365 36,32 36,31 C36,32 35.3284271,32.8349365 34.5,32.8349365 C33.7705875,32.8349365 33.1792818,32.2436308 33.1792818,31.5142183 C33.1792818,31.4583124 33.1828315,31.4024629 33.1899096,31.3470069 L33.689195,27.4351374 C32.0909756,26.6007238 31,24.9277674 31,23 C31,20.2385763 33.2385763,18 36,18 C38.7614237,18 41,20.2385763 41,23 C41,24.9277674 39.9090244,26.6007238 38.310805,27.4351374 Z M36,25 C37.1045695,25 38,24.1045695 38,23 C38,21.8954305 37.1045695,21 36,21 C34.8954305,21 34,21.8954305 34,23 C34,24.1045695 34.8954305,25 36,25 Z"/>
  </g>
</svg>
