<svg xmlns="http://www.w3.org/2000/svg" width="50" height="50" viewBox="0 0 50 50">
  <g fill="none" fill-rule="evenodd">
    <path fill="#888" fill-rule="nonzero" d="M21.8140658,43.0497127 C30.9244976,43.0497127 39,38.1137164 39,32.0248563 C39,25.9359963 30.9244976,20.8366922 21.8140658,20.8366922 C12.703634,20.8366922 5,25.9359963 5,32.0248563 C5,34.9544135 7.21113245,37.8622439 10,39.8366922 C10.5516627,40.2272556 9.17434038,42.400748 5.86803293,46.3571696 C10.5486444,43.3380816 13.4259668,41.9979225 14.5,42.3366922 C16.6331282,43.0095197 19.2988765,43.0497127 21.8140658,43.0497127 Z M21.9500564,45.8366922 C19.24327,45.8366922 16.8740584,45.7152857 14.5,45 C12.7294902,44.4665589 5.59116991,49.9615097 3.5,48.5 C1.40883009,47.0384903 6.87902516,41.3144125 6,40.5 C3.44632445,38.134032 2,35.5570569 2,32.1785848 C2,24.0019958 11.3211634,18 21.9500564,18 C32.5789493,18 42,24.1601032 42,32.3366922 C42,40.5132812 32.5789493,45.8366922 21.9500564,45.8366922 Z"/>
    <path fill="#888" fill-rule="nonzero" d="M16.1410003,15.5382419 C15.9288503,14.7568759 15.8172664,13.9428414 15.8172664,13.1018548 C15.8172664,6.12288656 23.5015962,1 32.5736807,1 C41.6457653,1 49.3300951,6.12288656 49.3300951,13.1018548 C49.3300951,15.9854839 48.0181903,18.552234 45.8385503,20.5716598 C45.0882755,21.2667858 49.9673274,26.2030644 48.3991832,27.0655335 C47.5134822,27.5526633 45.1536266,26.4495914 42.9951094,25.4792747 C39.4851257,19.1392318 31.2759084,15 21.9038677,15 C19.9195992,15 17.9874557,15.1855463 16.1410003,15.5382419 Z"/>
  </g>
</svg>
