<svg xmlns="http://www.w3.org/2000/svg" width="50" height="50" viewBox="0 0 50 50">
  <g fill="none" fill-rule="evenodd">
    <g fill="#888" transform="translate(31 5)">
      <path d="M10,12 L10,4.5 C10,3.67157288 9.32842712,3 8.5,3 L0,3 L0,0 L8.5,0 C13,0 14,4 14,8 L14,12 L14,15 C14,17 15,19 18,19 L19,19 L19,21 L15,21 C11,21 10,17 10,14 L10,12 Z"/>
      <path d="M10,32 L10,24.5 C10,23.6715729 9.32842712,23 8.5,23 L0,23 L0,20 L8.5,20 C13,20 14,23 14,28 L14,32 L14,35 C14,37 15,39 18,39 L19,39 L19,41 L15,41 C11,41 10,37 10,34 L10,32 Z" transform="matrix(1 0 0 -1 0 61)"/>
    </g>
    <g fill="#888" transform="matrix(-1 0 0 1 19 5)">
      <path d="M10,12 L10,4.5 C10,3.67157288 9.32842712,3 8.5,3 L0,3 L0,0 L8.5,0 C13,0 14,4 14,8 L14,12 L14,15 C14,17 15,19 18,19 L19,19 L19,21 L15,21 C11,21 10,17 10,14 L10,12 Z"/>
      <path d="M10,32 L10,24.5 C10,23.6715729 9.32842712,23 8.5,23 L0,23 L0,20 L8.5,20 C13,20 14,23 14,28 L14,32 L14,35 C14,37 15,39 18,39 L19,39 L19,41 L15,41 C11,41 10,37 10,34 L10,32 Z" transform="matrix(1 0 0 -1 0 61)"/>
    </g>
  </g>
</svg>
