<svg xmlns="http://www.w3.org/2000/svg" width="50" height="50" viewBox="0 0 50 50">
  <g fill="none" fill-rule="evenodd">
    <circle cx="25" cy="25" r="23.5" stroke="#888" stroke-width="3"/>
    <path fill="#888" d="M23,30.1715729 L23,15 C23,13.8954305 23.8954305,13 25,13 C26.1045695,13 27,13.8954305 27,15 L27,30.1994942 L30.7852806,26.4142136 C31.5663292,25.633165 32.8326592,25.633165 33.6137077,26.4142136 C34.3947563,27.1952621 34.3947563,28.4615921 33.6137077,29.2426407 L26.5426399,36.3137085 C26.4641106,36.3922378 26.3806757,36.4628714 26.2933215,36.5256095 C25.9446208,36.8215108 25.4931546,37 25,37 C24.4222325,37 23.9016859,36.7550079 23.5365778,36.3632412 C23.519259,36.3470949 23.5021569,36.330584 23.4852814,36.3137085 L16.4142136,29.2426407 C15.633165,28.4615921 15.633165,27.1952621 16.4142136,26.4142136 C17.1952621,25.633165 18.4615921,25.633165 19.2426407,26.4142136 L23,30.1715729 Z"/>
  </g>
</svg>
