<svg xmlns="http://www.w3.org/2000/svg" width="50" height="50" viewBox="0 0 50 50">
  <g fill="none" fill-rule="evenodd">
    <path fill="#888" fill-rule="nonzero" d="M5.5,13 L33.5,13 C35.9852814,13 38,15.0147186 38,17.5 L38,37.5 C38,39.9852814 35.9852814,42 33.5,42 C26.504425,42 21.3377583,42 18,42 C16.5527681,42 10,49 6,49 C3,49 9.23597959,42 8,42 C7.22222222,42 6.38888889,42 5.5,42 C3.01471863,42 1,39.9852814 1,37.5 L1,17.5 C1,15.0147186 3.01471863,13 5.5,13 Z M5.5,16 C4.67157288,16 4,16.6715729 4,17.5 L4,37.5 C4,38.3284271 4.67157288,39 5.5,39 L11.1683345,39 C11.7206193,39 12.1683345,39.4477153 12.1683345,40 C12.1683345,40.1917516 12.1132041,40.3794603 12.009513,40.5407576 L8.5,46 L15.7537616,40.0263139 C16.5594463,39.3628089 17.570717,39 18.6144443,39 L33.5,39 C34.3284271,39 35,38.3284271 35,37.5 L35,17.5 C35,16.6715729 34.3284271,16 33.5,16 L5.5,16 Z"/>
    <path fill="#888" fill-rule="nonzero" d="M41,27.8515755 L41,14.8552632 C41,12.1737754 38.830303,10 36.1538462,10 L18,10 L18,4.55263158 C18,2.59056734 19.601443,1 21.5769231,1 L45.4230769,1 C47.398557,1 49,2.59056734 49,4.55263158 L49,21.9210526 C49,23.8831169 47.398557,25.4736842 45.4487179,25.4736842 C44.4662726,25.4736842 49.4230769,31 47.0384615,31 C45.3005169,31 42.956302,29.3488237 41,27.8515755 Z"/>
  </g>
</svg>
