<svg xmlns="http://www.w3.org/2000/svg" width="50" height="50" viewBox="0 0 50 50">
  <path fill="#888" d="M44.9149017,37.0383413 C46.0195549,37.8334995 46.2000622,38.4837294 45.8167051,40.0552987 C45.3776364,41.8737391 44.0411333,43.8044787 42.2703302,45.0854825 C41.4477346,45.6796213 40.3418101,45.9865408 39.0270736,45.9976658 C38.9622573,45.9988336 38.9622573,45.9988336 38.8605981,46 C38.6570068,46 38.4722175,45.9933134 38.2600069,45.9774694 C37.8420291,45.9504539 37.4317529,45.900856 37.0328122,45.8310782 C36.8306245,45.7957141 36.6730944,45.763315 36.4641755,45.7159488 C30.7375124,44.5335313 24.1505491,40.4804588 17.2148677,33.5292268 C10.1819549,26.4813716 6.20721603,19.8467459 5.21824622,14.1133153 C5.06597848,13.4584072 4.98665922,12.7322267 5.00184044,11.982739 C5.02783484,10.6994111 5.34015379,9.59749561 5.95432756,8.74413308 C7.22563848,6.97433009 9.15010604,5.63416301 10.9684793,5.18827551 C11.5056024,5.05746493 11.8715214,5 12.1866263,5 C12.9420863,5 13.4194152,5.31152728 13.9734337,6.09161346 C14.5143946,6.84729917 18.3611901,13.0227024 18.9412093,14.0500522 C19.0274186,14.2028882 19.0630226,14.2672268 19.1070519,14.3501097 C19.6406679,15.354614 19.6687497,16.1233488 19.1471966,17.0883553 C18.8014123,17.7244683 18.3772803,18.4900684 17.768045,19.5789294 L17.3102369,20.4010187 C16.8665489,21.1969612 16.8861699,21.8750157 17.3180095,22.5388266 C17.667384,23.0810725 19.0470408,24.7957508 20.6309304,26.6761276 L23.93527,30.0047554 C26.0876708,31.8231822 27.9724793,33.3445859 28.5158086,33.6968065 C28.8454455,33.9125947 29.1877024,34.0201526 29.5422187,34.0201526 C29.8934846,34.0201526 30.2594742,33.9145056 30.6452551,33.7002924 L31.3498641,33.3058985 C32.5326157,32.6395636 33.2959871,32.2143836 33.9505549,31.8581661 C34.4126285,31.604819 34.8405516,31.4814448 35.2764355,31.4814448 C35.7407975,31.4814448 36.1582918,31.6148242 36.7206966,31.92037 C36.7898617,31.9579464 36.8426788,31.987422 36.9767469,32.0631568 C37.956836,32.6171348 44.1216444,36.4733723 44.9149017,37.0383413 Z"/>
</svg>
