<svg xmlns="http://www.w3.org/2000/svg" width="50" height="50" viewBox="0 0 50 50">
  <g fill="none" fill-rule="evenodd">
    <rect width="43" height="43" x="3.5" y="3.5" stroke="#888" stroke-width="3" rx="1.5"/>
    <path fill="#888" d="M25.0019278,17.4975 C24.7147742,16.0995 25.5459812,14.642 26.2828378,13.75 C27.2248041,12.672 28.5887836,12 29.8722575,12 C29.9543014,13.3975 29.5322882,14.7515 28.5903219,15.75 C27.7709087,16.828 26.3259109,17.657 25.0019278,17.4975 M34.3590322,20.125 C34.2498113,20.1915 31.6910678,21.664 31.6910678,24.792 C31.8136208,28.3595 34.9456459,29.625 35,29.625 C34.9456459,29.6915 34.5579886,31.3145 33.3022045,33.0315 C32.3048586,34.509 31.1664997,36 29.4876769,36 C27.8903851,36 27.349921,35 25.5064976,35 C23.527189,35 22.9267304,36 21.4114825,36 C19.7326596,36 18.5855836,34.429 17.5343964,32.965 C16.1693914,31.0485 15.0428264,28.04 15.0018044,25.1515 C14.9741146,23.6205 15.2628065,22.1165 16.0273529,20.8385 C17.1062299,19.0545 19.052721,17.79 21.1550954,17.75 C22.766232,17.6965 24.1461075,18.875 25.1290958,18.875 C26.0710621,18.875 27.879104,17.75 29.8722575,17.75 C30.73218,17.75 32.9391603,17.995 34.3590322,20.125"/>
  </g>
</svg>
