<svg xmlns="http://www.w3.org/2000/svg" width="50" height="50" viewBox="0 0 50 50">
  <g fill="none" fill-rule="evenodd">
    <path fill="#888" d="M11,39 L11,43.5 C11,44.3284271 10.3284271,45 9.5,45 C8.67157288,45 8,44.3284271 8,43.5 L8,37.5 C8,36.6715729 8.67157288,36 9.5,36 L15.5,36 C16.3284271,36 17,36.6715729 17,37.5 C17,38.3284271 16.3284271,39 15.5,39 L11,39 Z"/>
    <path fill="#888" d="M33.25,4.02073961 C33.3313021,4.0070997 33.4148219,4 33.5,4 L39.5,4 C40.3284271,4 41,4.67157288 41,5.5 C41,6.32842712 40.3284271,7 39.5,7 L34.5,7 L34.5,11.5 C34.5,12.3284271 33.8284271,13 33,13 C32.1715729,13 31.5,12.3284271 31.5,11.5 L31.5,5.5 C31.5,4.67157288 32.1715729,4 33,4 C33.0851781,4 33.1686979,4.0070997 33.25,4.02073961 Z" transform="rotate(180 36.25 8.5)"/>
    <path fill="#888" d="M5.50236366,35.7876883 L8.11054146,34.220537 C11.5007572,38.0707362 16.4666861,40.5 22,40.5 C32.2172679,40.5 40.5,32.2172679 40.5,22 C40.5,19.7017064 40.0809025,17.5012983 39.3149616,15.4710298 L41.9234533,13.9036898 C42.9399743,16.4026385 43.5,19.1359187 43.5,22 C43.5,33.8741221 33.8741221,43.5 22,43.5 C15.3729959,43.5 9.446277,40.5017227 5.50236366,35.7876883 Z M1.59777364,28.8007355 C0.885645,26.6633368 0.5,24.3767045 0.5,22 C0.5,10.1258779 10.1258779,0.5 22,0.5 C28.1302581,0.5 33.6612801,3.06563486 37.5778725,7.18171107 L34.9324968,8.77121315 C31.597086,5.51004611 27.0332787,3.5 22,3.5 C11.7827321,3.5 3.5,11.7827321 3.5,22 C3.5,23.8093305 3.75974062,25.5579953 4.24396855,27.2107412 L1.59777364,28.8007355 Z" transform="translate(3 3)"/>
    <path fill="#888" d="M11.1105415 37.220537C14.5007572 41.0707362 19.4666861 43.5 25 43.5 35.2172679 43.5 43.5 35.2172679 43.5 25 43.5 22.7017064 43.0809025 20.5012983 42.3149616 18.4710298L42.2752395 18.3428354C42.024027 17.5321023 42.4776081 16.6712252 43.2883412 16.4200127 43.8810434 16.236359 44.5260398 16.4271532 44.9234533 16.9036898 45.9399743 19.4026385 46.5 22.1359187 46.5 25 46.5 36.8741221 36.8741221 46.5 25 46.5 18.3729959 46.5 12.446277 43.5017227 8.50236366 38.7876883L11.1105415 37.220537zM4.59777364 31.8007355C3.885645 29.6633368 3.5 27.3767045 3.5 25 3.5 13.1258779 13.1258779 3.5 25 3.5 31.1302581 3.5 36.6612801 6.06563486 40.5778725 10.1817111L37.9324968 11.7712132C34.597086 8.51004611 30.0332787 6.5 25 6.5 14.7827321 6.5 6.5 14.7827321 6.5 25 6.5 26.8093305 6.75974062 28.5579953 7.24396855 30.2107412L7.24396855 30.2107412C7.58194007 31.0016076 7.21479622 31.9167115 6.42392981 32.2546831 5.80822243 32.5178015 5.09324484 32.3578899 4.64829348 31.8575448L4.59777364 31.8007355z"/>
  </g>
</svg>
