<svg xmlns="http://www.w3.org/2000/svg" width="50" height="50" viewBox="0 0 50 50">
  <path fill="#888" fill-rule="evenodd" d="M26.8365233,21.2409825 L37.1693369,10.9829357 L37.9404124,7.15545528 L44.1090164,4.09347091 L45.6511674,5.6244631 L45.6476561,5.62806325 L47,6.99026382 L43.9380156,13.1588678 L40.1105352,13.9299433 L29.9247104,24.1900087 L29.9240769,24.1893752 L24.5130013,29.6004508 L24.5332828,29.6207323 L24.2477203,29.9083761 C24.803623,31.030199 24.6144149,32.4274702 23.6800962,33.3617889 L11.2724727,45.7694124 C10.1008999,46.9409853 8.20140493,46.9409853 7.02983205,45.7694124 L5.36693088,44.1065112 C4.19535801,42.9349383 4.19535801,41.0354434 5.36693088,39.8638705 L17.7745543,27.4562471 C18.6939444,26.536857 20.061611,26.3389569 21.1739854,26.8625469 L21.4057996,26.6324101 L21.4872522,26.7138626 L26.8983278,21.302787 L26.8365233,21.2409825 Z M24.2179599,21.154943 L20.9489719,24.4239309 C19.367584,23.0396662 17.7861961,22.0863854 16.2048082,21.4032529 C15.1630218,20.9551601 14.0634429,21.0325231 12.9060714,21.1114181 C11.1046174,21.2324414 9.16248427,21.3549967 7.07967191,19.4890926 C4.79838784,17.4462493 3.78473729,14.5095184 4.03795982,10.680432 L8.60052796,14.8932697 L14.0170568,14.1655977 L14.7409842,8.69886631 C11.6987652,5.65183571 10.3046472,4.11989473 10.5586301,4.10304338 C10.9396046,4.07776635 11.3114539,4.06474485 11.674178,4.06474485 C14.9356538,4.06474485 17.4785251,5.09880501 19.302792,7.16692533 C22.3452645,10.6137925 20.06322,13.6776745 21.2046224,16.3585712 C21.8848604,17.9573618 22.8355447,19.5561524 24.2179599,21.154943 Z M30.3433276,26.5983365 C35.1390455,30.6278071 43.1611935,37.6375935 44.3976771,38.5717154 C45.8500947,39.6685851 47.8366449,43.4426474 45.1751468,45.7405589 C42.5136487,48.0384703 39.2876008,46.1502274 38.2572209,44.7661188 C37.3285215,43.5188276 30.3507196,35.4166955 26.3532002,30.588464 L30.3433276,26.5983365 Z"/>
</svg>
