<svg xmlns="http://www.w3.org/2000/svg" width="50" height="50" viewBox="0 0 50 50">
  <g fill="none" fill-rule="evenodd">
    <g fill="#888" transform="translate(1 1)">
      <path fill-rule="nonzero" d="M24,42 C33.9411255,42 42,33.9411255 42,24 C42,14.0588745 33.9411255,6 24,6 C14.0588745,6 6,14.0588745 6,24 C6,33.9411255 14.0588745,42 24,42 Z M24,45 C12.4020203,45 3,35.5979797 3,24 C3,12.4020203 12.4020203,3 24,3 C35.5979797,3 45,12.4020203 45,24 C45,35.5979797 35.5979797,45 24,45 Z"/>
      <path d="M22.9565217,1.04238946 C22.9565217,0.466693656 23.419685,0 24,0 C24.5762971,0 25.0434783,0.461906433 25.0434783,1.04238946 L25.0434783,3.13043478 L22.9565217,3.13043478 L22.9565217,1.04238946 Z M28.9339442,1.55457902 C29.0829453,0.998499577 29.6511159,0.667583603 30.2116571,0.817780169 C30.7683174,0.966936842 31.1000295,1.53401957 30.9497894,2.09472311 L30.4093635,4.11162002 L28.3935183,3.57147593 L28.9339442,1.55457902 Z M34.5751266,3.59638693 C34.8629745,3.09781974 35.4974325,2.92523283 36,3.21539031 C36.499088,3.50353887 36.6727255,4.13715214 36.382484,4.63986519 L35.3384613,6.44816549 L33.5311039,5.40468723 L34.5751266,3.59638693 Z M39.4956315,7.02866735 C39.9027099,6.62158895 40.5602181,6.6190926 40.9705627,7.02943725 C41.3780664,7.43694086 41.3817961,8.09390498 40.9713327,8.50436846 L39.4948616,9.98083947 L38.0191605,8.50513836 L39.4956315,7.02866735 Z M43.3601348,11.617516 C43.858702,11.3296681 44.4944522,11.4974325 44.7846097,12 C45.0727583,12.499088 44.9063261,13.1346319 44.4036131,13.4248734 L42.5953128,14.4688961 L41.5518345,12.6615387 L43.3601348,11.617516 Z M45.9052769,17.0502106 C46.4613563,16.9012095 47.0320233,17.2278017 47.1822198,17.7883429 C47.3313765,18.3450032 47.0061245,18.9158157 46.445421,19.0660558 L44.4285241,19.6064817 L43.88838,17.5906365 L45.9052769,17.0502106 Z M46.9576105,22.9565217 C47.5333063,22.9565217 48,23.419685 48,24 C48,24.5762971 47.5380936,25.0434783 46.9576105,25.0434783 L44.8695652,25.0434783 L44.8695652,22.9565217 L46.9576105,22.9565217 Z M46.445421,28.9339442 C47.0015004,29.0829453 47.3324164,29.6511159 47.1822198,30.2116571 C47.0330632,30.7683174 46.4659804,31.1000295 45.9052769,30.9497894 L43.88838,30.4093635 L44.4285241,28.3935183 L46.445421,28.9339442 Z M44.4036131,34.5751266 C44.9021803,34.8629745 45.0747672,35.4974325 44.7846097,36 C44.4964611,36.499088 43.8628479,36.6727255 43.3601348,36.382484 L41.5518345,35.3384613 L42.5953128,33.5311039 L44.4036131,34.5751266 Z M40.9713327,39.4956315 C41.3784111,39.9027099 41.3809074,40.5602181 40.9705627,40.9705627 C40.5630591,41.3780664 39.906095,41.3817961 39.4956315,40.9713327 L38.0191605,39.4948616 L39.4948616,38.0191605 L40.9713327,39.4956315 Z M36.382484,43.3601348 C36.6703319,43.858702 36.5025675,44.4944522 36,44.7846097 C35.500912,45.0727583 34.8653681,44.9063261 34.5751266,44.4036131 L33.5311039,42.5953128 L35.3384613,41.5518345 L36.382484,43.3601348 Z M30.9497894,45.9052769 C31.0987905,46.4613563 30.7721983,47.0320233 30.2116571,47.1822198 C29.6549968,47.3313765 29.0841843,47.0061245 28.9339442,46.445421 L28.3935183,44.4285241 L30.4093635,43.88838 L30.9497894,45.9052769 Z M25.0434783,46.9576105 C25.0434783,47.5333063 24.580315,48 24,48 C23.4237029,48 22.9565217,47.5380936 22.9565217,46.9576105 L22.9565217,44.8695652 L25.0434783,44.8695652 L25.0434783,46.9576105 Z M19.0660558,46.445421 C18.9170547,47.0015004 18.3488841,47.3324164 17.7883429,47.1822198 C17.2316826,47.0330632 16.8999705,46.4659804 17.0502106,45.9052769 L17.5906365,43.88838 L19.6064817,44.4285241 L19.0660558,46.445421 Z M13.4248734,44.4036131 C13.1370255,44.9021803 12.5025675,45.0747672 12,44.7846097 C11.500912,44.4964611 11.3272745,43.8628479 11.617516,43.3601348 L12.6615387,41.5518345 L14.4688961,42.5953128 L13.4248734,44.4036131 Z M8.50436846,40.9713327 C8.09729005,41.3784111 7.4397819,41.3809074 7.02943725,40.9705627 C6.62193364,40.5630591 6.61820387,39.906095 7.02866735,39.4956315 L8.50513836,38.0191605 L9.98083947,39.4948616 L8.50436846,40.9713327 Z M4.63986519,36.382484 C4.141298,36.6703319 3.50554779,36.5025675 3.21539031,36 C2.92724174,35.500912 3.09367388,34.8653681 3.59638693,34.5751266 L5.40468723,33.5311039 L6.44816549,35.3384613 L4.63986519,36.382484 Z M2.09472311,30.9497894 C1.53864367,31.0987905 0.967976735,30.7721983 0.817780169,30.2116571 C0.668623496,29.6549968 0.993875475,29.0841843 1.55457902,28.9339442 L3.57147593,28.3935183 L4.11162002,30.4093635 L2.09472311,30.9497894 Z M1.04238946,25.0434783 C0.466693656,25.0434783 -1.65163825e-14,24.580315 -1.66229846e-14,24 C-1.67288487e-14,23.4237029 0.461906433,22.9565217 1.04238946,22.9565217 L3.13043478,22.9565217 L3.13043478,25.0434783 L1.04238946,25.0434783 Z M1.55457902,19.0660558 C0.998499577,18.9170547 0.667583603,18.3488841 0.817780169,17.7883429 C0.966936842,17.2316826 1.53401957,16.8999705 2.09472311,17.0502106 L4.11162002,17.5906365 L3.57147593,19.6064817 L1.55457902,19.0660558 Z M3.59638693,13.4248734 C3.09781974,13.1370255 2.92523283,12.5025675 3.21539031,12 C3.50353887,11.500912 4.13715214,11.3272745 4.63986519,11.617516 L6.44816549,12.6615387 L5.40468723,14.4688961 L3.59638693,13.4248734 Z M7.02866735,8.50436846 C6.62158895,8.09729005 6.6190926,7.4397819 7.02943725,7.02943725 C7.43694086,6.62193364 8.09390498,6.61820387 8.50436846,7.02866735 L9.98083947,8.50513836 L8.50513836,9.98083947 L7.02866735,8.50436846 Z M11.617516,4.63986519 C11.3296681,4.141298 11.4974325,3.50554779 12,3.21539031 C12.499088,2.92724174 13.1346319,3.09367388 13.4248734,3.59638693 L14.4688961,5.40468723 L12.6615387,6.44816549 L11.617516,4.63986519 Z M17.0502106,2.09472311 C16.9012095,1.53864367 17.2278017,0.967976735 17.7883429,0.817780169 C18.3450032,0.668623496 18.9158157,0.993875475 19.0660558,1.55457902 L19.6064817,3.57147593 L17.5906365,4.11162002 L17.0502106,2.09472311 Z"/>
    </g>
    <path fill="#888" fill-rule="nonzero" d="M16.0676702,13.0061206 L23.3798591,25.6712034 L16.5205455,37.551883 C12.5806405,34.8235635 10,30.2711273 10,25.1159503 C10,20.1610096 12.3840604,15.7628961 16.0676702,13.0061206 Z M18.6363879,11.4552703 C20.6001835,10.5221429 22.7970904,10 25.1159503,10 C33.0889234,10 39.6201661,16.172782 40.1913325,24 L25.879091,24 L18.6363879,11.4552703 Z M19.1447049,39.0067057 L26.0767796,27 L40.1156305,27 C39.1882322,34.4591666 32.8262384,40.2319005 25.1159503,40.2319005 C22.9951833,40.2319005 20.9764232,39.7951573 19.1447049,39.0067057 Z"/>
  </g>
</svg>
