<svg xmlns="http://www.w3.org/2000/svg" width="50" height="50" viewBox="0 0 50 50">
  <g fill="none" fill-rule="evenodd">
    <circle cx="25" cy="25" r="4" stroke="#888" stroke-width="2"/>
    <path fill="#888" d="M42.6598739 42.6710058C42.0723613 43.2554022 41.5943495 43.7049412 41.2258386 44.0196227 36.8590196 47.7485689 31.1924347 50 25 50 18.4280806 50 12.4484363 47.4641695 7.98616138 43.317603 7.822881 43.1658748 7.62248653 42.9705651 7.38497798 42.731674L7.38499591 42.7316562C7.11655096 42.4616487 7.1178177 42.0251467 7.38782525 41.7567017 7.46508623 41.6798879 7.55945238 41.6224788 7.6631871 41.5891811L7.6631871 41.5891811C8.30862279 41.3820038 9.0156143 41.5385445 9.51326353 41.9988215 9.70311156 42.1744131 9.86528635 42.3201174 9.99978756 42.4359347 14.0269384 45.9036643 19.2686565 48 25 48 30.7415548 48 35.9917379 45.8961878 40.0217259 42.4173867 40.1828096 42.2783347 40.3806149 42.0988682 40.6151417 41.8789873L40.6151271 41.8789717C41.0958681 41.4282525 41.789943 41.2877093 42.4081566 41.5159014L42.4081566 41.5159014C42.7715084 41.6500201 42.9573386 42.0532996 42.8232199 42.4166514 42.7879127 42.512305 42.7321723 42.5991092 42.659883 42.671015zM47.5630822 29.4683829C47.6023517 29.2764641 47.6340435 29.1112587 47.6581577 28.9727667 47.8828607 27.6822542 48 26.3548068 48 25 48 15.1172981 41.7669682 6.69039876 33.0176336 3.43603092 32.7540729 3.33799795 32.4052859 3.22085409 31.9712725 3.08459934L31.9712683 3.08461289C31.3760877 2.89776112 30.902178 2.44389682 30.6897938 1.85734214L30.6225669 1.67167726C30.5014123 1.3370773 30.6744441.967615293 31.009044.846460771 31.1305859.802451951 31.2625548.79601725 31.3878016.827992842 31.6313695.890222534 31.8372743.945821693 32.0055047.99483413 42.4027627 4.02398186 50 13.624776 50 25 50 26.7215692 49.8259858 28.4024952 49.494587 30.0261484 49.4520303 30.2346504 49.3930162 30.4933558 49.3175447 30.8022645L49.3175576 30.8022676C49.2247637 31.1820777 48.8416426 31.4147503 48.4618325 31.3219564 48.3628109 31.2977638 48.2701816 31.2524724 48.1902783 31.1891792L48.1902783 31.1891792C47.6734184 30.7797628 47.4308876 30.1143632 47.5630658 29.4683796zM.50469618 30.022635C.16823206 27.8210966 0 26.146885 0 25 0 13.6113096 7.61523566 4.00125286 18.0314329.984103745 18.1873264.938947746 18.3764483.887930003 18.5987987.831050515L18.5988082.831087568C18.9437216.742855228 19.2948555.950936322 19.3830879 1.2958497 19.4151306 1.42110953 19.4087664 1.55311048 19.364822 1.67470674L19.2982172 1.85895858C19.0859788 2.44623197 18.6116206 2.90067087 18.0157879 3.08753597 17.6286992 3.20893477 17.3154907 3.3135483 17.0761624 3.40137657 8.27761249 6.63025272 2 15.0820189 2 25 2 26.3653344 2.11896686 27.7028826 2.34710003 29.002844 2.37653409 29.1705669 2.41655338 29.3741503 2.46715791 29.6135943L2.4671519 29.6135956C2.60735776 30.2770038 2.37987457 30.9645469 1.87165661 31.413415L1.87165661 31.413415C1.59150128 31.6608537 1.16380179 31.6343317.916363062 31.3541763.844620639 31.2729481.7934339 31.1756789.767108342 31.0705505L.50469618 30.022635z"/>
    <g fill="#888" fill-rule="nonzero" transform="translate(2 1)">
      <path d="M22.4133449,9.66454857e-17 L23.5751506,9.44194086e-06 C24.9326065,9.44194086e-06 26.0420245,1.08325284 26.0744287,2.44032193 C26.1526768,5.71729765 26.1278672,8.57052367 26,11 C25.8413507,14.0143364 25.3413507,17.3476698 24.5,21 L21.5,21 C20.6748698,17.6558592 20.1748698,14.3225259 20,11 C19.8611335,8.36153626 19.8325428,5.50605155 19.9142279,2.43354588 L19.9142409,2.43354622 C19.9502474,1.07919902 21.0585191,-9.54449539e-16 22.4133449,0 Z M22,3 C21.8348959,3.71354392 21.8348959,6.54687726 22,11.5 C22.1651041,16.4531227 22.4958762,19.2864561 22.9923163,20 L22.9961581,20 C22.9984821,20 23.0005689,19.9985766 23.001417,19.9964129 C23.5226525,18.6666549 23.8555161,15.8345183 24,11.5 C24.1446141,7.16157689 24.1446141,4.32824356 24,3 L22,3 Z"/>
      <path d="M10.0752291,20.4563897 L11.2370348,20.4563991 C12.5944907,20.4563991 13.7039087,21.5396425 13.736313,22.8967116 C13.814561,26.1736874 13.7897514,29.0269134 13.6618843,31.4563897 C13.503235,34.4707262 13.003235,37.8040595 12.1618843,41.4563897 L9.16188425,41.4563897 C8.33675403,38.1122489 7.83675403,34.7789156 7.66188425,31.4563897 C7.52301774,28.817926 7.49442704,25.9624413 7.57611217,22.8899356 L7.57612518,22.8899359 C7.61213163,21.5355887 8.72040338,20.4563897 10.0752291,20.4563897 Z M9.66188425,23.4563897 C9.49678016,24.1699336 9.49678016,27.003267 9.66188425,31.9563897 C9.82698834,36.9095125 10.1577604,39.7428458 10.6542005,40.4563897 L10.6580424,40.4563897 C10.6603664,40.4563897 10.6624532,40.4549663 10.6633013,40.4528026 C11.1845367,39.1230446 11.5174003,36.290908 11.6618843,31.9563897 C11.8064984,27.6179666 11.8064984,24.7846333 11.6618843,23.4563897 L9.66188425,23.4563897 Z" transform="rotate(-120 10.656 30.956)"/>
      <path d="M35.0752291,20.4563897 L36.2370348,20.4563991 C37.5944907,20.4563991 38.7039087,21.5396425 38.736313,22.8967116 C38.814561,26.1736874 38.7897514,29.0269134 38.6618843,31.4563897 C38.503235,34.4707262 38.003235,37.8040595 37.1618843,41.4563897 L34.1618843,41.4563897 C33.336754,38.1122489 32.836754,34.7789156 32.6618843,31.4563897 C32.5230177,28.817926 32.494427,25.9624413 32.5761122,22.8899356 L32.5761252,22.8899359 C32.6121316,21.5355887 33.7204034,20.4563897 35.0752291,20.4563897 Z M34.6618843,23.4563897 C34.4967802,24.1699336 34.4967802,27.003267 34.6618843,31.9563897 C34.8269883,36.9095125 35.1577604,39.7428458 35.6542005,40.4563897 L35.6580424,40.4563897 C35.6603664,40.4563897 35.6624532,40.4549663 35.6633013,40.4528026 C36.1845367,39.1230446 36.5174003,36.290908 36.6618843,31.9563897 C36.8064984,27.6179666 36.8064984,24.7846333 36.6618843,23.4563897 L34.6618843,23.4563897 Z" transform="rotate(120 35.656 30.956)"/>
    </g>
  </g>
</svg>
